<mxfile host="app.diagrams.net" modified="2024-03-12T10:11:44.384Z" agent="Mozilla/5.0 (Windows NT 10.0; Win64; x64) AppleWebKit/537.36 (KHTML, like Gecko) Chrome/122.0.0.0 Safari/537.36" etag="s4HvFisuCYbXtgb7bpiT" version="24.0.5" type="device">
  <diagram name="Page-1" id="1xinBBYzjtLA0QXOlqDQ">
    <mxGraphModel dx="1434" dy="780" grid="1" gridSize="10" guides="1" tooltips="1" connect="1" arrows="1" fold="1" page="1" pageScale="1" pageWidth="827" pageHeight="1169" math="0" shadow="0">
      <root>
        <mxCell id="0" />
        <mxCell id="1" parent="0" />
        <mxCell id="4jSW-Y-S4H_q4Jhx5r0V-1" value="node_module" style="shape=folder;fontStyle=1;spacingTop=10;tabWidth=40;tabHeight=14;tabPosition=left;html=1;whiteSpace=wrap;" parent="1" vertex="1">
          <mxGeometry x="580" y="60" width="90" height="60" as="geometry" />
        </mxCell>
        <mxCell id="4jSW-Y-S4H_q4Jhx5r0V-14" style="edgeStyle=none;rounded=0;orthogonalLoop=1;jettySize=auto;html=1;exitX=1;exitY=0.5;exitDx=0;exitDy=0;" parent="1" source="4jSW-Y-S4H_q4Jhx5r0V-2" target="4jSW-Y-S4H_q4Jhx5r0V-1" edge="1">
          <mxGeometry relative="1" as="geometry" />
        </mxCell>
        <mxCell id="4jSW-Y-S4H_q4Jhx5r0V-17" style="edgeStyle=none;rounded=0;orthogonalLoop=1;jettySize=auto;html=1;exitX=0.5;exitY=1;exitDx=0;exitDy=0;" parent="1" source="4jSW-Y-S4H_q4Jhx5r0V-2" target="4jSW-Y-S4H_q4Jhx5r0V-10" edge="1">
          <mxGeometry relative="1" as="geometry" />
        </mxCell>
        <mxCell id="4jSW-Y-S4H_q4Jhx5r0V-2" value="&lt;p style=&quot;margin:0px;margin-top:6px;text-align:center;&quot;&gt;&lt;b&gt;P-API&lt;/b&gt;&lt;/p&gt;&lt;hr size=&quot;1&quot; style=&quot;border-style:solid;&quot;&gt;&lt;p style=&quot;margin:0px;margin-left:8px;&quot;&gt;package.json&lt;/p&gt;&lt;p style=&quot;margin:0px;margin-left:8px;&quot;&gt;package-lock.json&lt;/p&gt;" style="align=left;overflow=fill;html=1;dropTarget=0;whiteSpace=wrap;" parent="1" vertex="1">
          <mxGeometry x="324" y="20" width="180" height="90" as="geometry" />
        </mxCell>
        <mxCell id="4jSW-Y-S4H_q4Jhx5r0V-3" value="" style="shape=component;jettyWidth=8;jettyHeight=4;" parent="4jSW-Y-S4H_q4Jhx5r0V-2" vertex="1">
          <mxGeometry x="1" width="20" height="20" relative="1" as="geometry">
            <mxPoint x="-24" y="4" as="offset" />
          </mxGeometry>
        </mxCell>
        <mxCell id="4jSW-Y-S4H_q4Jhx5r0V-4" value="&lt;p style=&quot;margin:0px;margin-top:6px;text-align:center;&quot;&gt;&lt;b&gt;auth&lt;/b&gt;&lt;/p&gt;&lt;hr size=&quot;1&quot; style=&quot;border-style:solid;&quot;&gt;&lt;p style=&quot;margin:0px;margin-left:8px;&quot;&gt;auth.mjs&lt;/p&gt;" style="align=left;overflow=fill;html=1;dropTarget=0;whiteSpace=wrap;" parent="1" vertex="1">
          <mxGeometry x="620" y="310" width="180" height="160" as="geometry" />
        </mxCell>
        <mxCell id="4jSW-Y-S4H_q4Jhx5r0V-5" value="" style="shape=component;jettyWidth=8;jettyHeight=4;" parent="4jSW-Y-S4H_q4Jhx5r0V-4" vertex="1">
          <mxGeometry x="1" width="20" height="20" relative="1" as="geometry">
            <mxPoint x="-24" y="4" as="offset" />
          </mxGeometry>
        </mxCell>
        <mxCell id="4jSW-Y-S4H_q4Jhx5r0V-6" value="&lt;p style=&quot;margin:0px;margin-top:6px;text-align:center;&quot;&gt;&lt;b&gt;models&lt;/b&gt;&lt;/p&gt;&lt;hr size=&quot;1&quot; style=&quot;border-style:solid;&quot;&gt;&lt;p style=&quot;margin:0px;margin-left:8px;&quot;&gt;auteurs.mjs&lt;/p&gt;&lt;p style=&quot;margin:0px;margin-left:8px;&quot;&gt;categories.mjs&lt;/p&gt;&lt;p style=&quot;margin:0px;margin-left:8px;&quot;&gt;commentaires.mjs&lt;/p&gt;&lt;p style=&quot;margin:0px;margin-left:8px;&quot;&gt;editeurs.mjs&lt;br&gt;livres.mjs&lt;/p&gt;&lt;p style=&quot;margin:0px;margin-left:8px;&quot;&gt;utilisateurs.mjs&lt;/p&gt;" style="align=left;overflow=fill;html=1;dropTarget=0;whiteSpace=wrap;" parent="1" vertex="1">
          <mxGeometry x="220" y="310" width="180" height="160" as="geometry" />
        </mxCell>
        <mxCell id="4jSW-Y-S4H_q4Jhx5r0V-7" value="" style="shape=component;jettyWidth=8;jettyHeight=4;" parent="4jSW-Y-S4H_q4Jhx5r0V-6" vertex="1">
          <mxGeometry x="1" width="20" height="20" relative="1" as="geometry">
            <mxPoint x="-24" y="4" as="offset" />
          </mxGeometry>
        </mxCell>
        <mxCell id="4jSW-Y-S4H_q4Jhx5r0V-8" value="&lt;p style=&quot;margin:0px;margin-top:6px;text-align:center;&quot;&gt;&lt;b&gt;routes&lt;/b&gt;&lt;/p&gt;&lt;hr size=&quot;1&quot; style=&quot;border-style:solid;&quot;&gt;&lt;p style=&quot;margin:0px;margin-left:8px;&quot;&gt;auteurs.mjs&lt;/p&gt;&lt;p style=&quot;margin:0px;margin-left:8px;&quot;&gt;categories.mjs&lt;/p&gt;&lt;p style=&quot;margin:0px;margin-left:8px;&quot;&gt;commentaires.mjs&lt;br&gt;editeurs.mjs&lt;/p&gt;&lt;p style=&quot;margin:0px;margin-left:8px;&quot;&gt;&lt;span style=&quot;background-color: initial;&quot;&gt;livres.mjs&lt;/span&gt;&lt;br&gt;&lt;/p&gt;&lt;p style=&quot;margin:0px;margin-left:8px;&quot;&gt;utilisateurs.mjs&lt;/p&gt;&lt;p style=&quot;margin: 0px 0px 0px 8px;&quot;&gt;helper.mjs&lt;/p&gt;&lt;div&gt;&lt;br&gt;&lt;/div&gt;" style="align=left;overflow=fill;html=1;dropTarget=0;whiteSpace=wrap;" parent="1" vertex="1">
          <mxGeometry x="20" y="310" width="180" height="160" as="geometry" />
        </mxCell>
        <mxCell id="4jSW-Y-S4H_q4Jhx5r0V-9" value="" style="shape=component;jettyWidth=8;jettyHeight=4;" parent="4jSW-Y-S4H_q4Jhx5r0V-8" vertex="1">
          <mxGeometry x="1" width="20" height="20" relative="1" as="geometry">
            <mxPoint x="-24" y="4" as="offset" />
          </mxGeometry>
        </mxCell>
        <mxCell id="4jSW-Y-S4H_q4Jhx5r0V-19" style="edgeStyle=none;rounded=0;orthogonalLoop=1;jettySize=auto;html=1;exitX=0.5;exitY=1;exitDx=0;exitDy=0;entryX=0.5;entryY=0;entryDx=0;entryDy=0;" parent="1" source="4jSW-Y-S4H_q4Jhx5r0V-10" target="4jSW-Y-S4H_q4Jhx5r0V-6" edge="1">
          <mxGeometry relative="1" as="geometry" />
        </mxCell>
        <mxCell id="4jSW-Y-S4H_q4Jhx5r0V-20" style="edgeStyle=none;rounded=0;orthogonalLoop=1;jettySize=auto;html=1;exitX=0.5;exitY=1;exitDx=0;exitDy=0;entryX=0.5;entryY=0;entryDx=0;entryDy=0;" parent="1" source="4jSW-Y-S4H_q4Jhx5r0V-10" target="4jSW-Y-S4H_q4Jhx5r0V-15" edge="1">
          <mxGeometry relative="1" as="geometry" />
        </mxCell>
        <mxCell id="4jSW-Y-S4H_q4Jhx5r0V-10" value="&lt;p style=&quot;margin:0px;margin-top:6px;text-align:center;&quot;&gt;&lt;b&gt;src&lt;/b&gt;&lt;/p&gt;&lt;hr size=&quot;1&quot; style=&quot;border-style:solid;&quot;&gt;&lt;p style=&quot;margin:0px;margin-left:8px;&quot;&gt;app.mjs&lt;br&gt;&lt;/p&gt;" style="align=left;overflow=fill;html=1;dropTarget=0;whiteSpace=wrap;" parent="1" vertex="1">
          <mxGeometry x="324" y="150" width="180" height="90" as="geometry" />
        </mxCell>
        <mxCell id="4jSW-Y-S4H_q4Jhx5r0V-11" value="" style="shape=component;jettyWidth=8;jettyHeight=4;" parent="4jSW-Y-S4H_q4Jhx5r0V-10" vertex="1">
          <mxGeometry x="1" width="20" height="20" relative="1" as="geometry">
            <mxPoint x="-24" y="4" as="offset" />
          </mxGeometry>
        </mxCell>
        <mxCell id="4jSW-Y-S4H_q4Jhx5r0V-15" value="&lt;p style=&quot;margin:0px;margin-top:6px;text-align:center;&quot;&gt;&lt;b&gt;db&lt;/b&gt;&lt;/p&gt;&lt;hr size=&quot;1&quot; style=&quot;border-style:solid;&quot;&gt;&lt;p style=&quot;margin:0px;margin-left:8px;&quot;&gt;mockup-auteurs.mjs&lt;/p&gt;&lt;p style=&quot;margin:0px;margin-left:8px;&quot;&gt;mockup-categories.mjs&lt;/p&gt;&lt;p style=&quot;margin:0px;margin-left:8px;&quot;&gt;mockup-commentaires.mjs&lt;/p&gt;&lt;p style=&quot;margin:0px;margin-left:8px;&quot;&gt;mockup-editeurs.mjs&lt;/p&gt;&lt;p style=&quot;margin:0px;margin-left:8px;&quot;&gt;mockup-livres.mjs&lt;/p&gt;&lt;p style=&quot;margin:0px;margin-left:8px;&quot;&gt;mockup-utilisateurs.mjs&lt;/p&gt;&lt;p style=&quot;margin:0px;margin-left:8px;&quot;&gt;sequelize.mjs&lt;/p&gt;" style="align=left;overflow=fill;html=1;dropTarget=0;whiteSpace=wrap;" parent="1" vertex="1">
          <mxGeometry x="420" y="310" width="180" height="160" as="geometry" />
        </mxCell>
        <mxCell id="4jSW-Y-S4H_q4Jhx5r0V-16" value="" style="shape=component;jettyWidth=8;jettyHeight=4;" parent="4jSW-Y-S4H_q4Jhx5r0V-15" vertex="1">
          <mxGeometry x="1" width="20" height="20" relative="1" as="geometry">
            <mxPoint x="-24" y="4" as="offset" />
          </mxGeometry>
        </mxCell>
        <mxCell id="4jSW-Y-S4H_q4Jhx5r0V-18" style="edgeStyle=none;rounded=0;orthogonalLoop=1;jettySize=auto;html=1;exitX=0.5;exitY=1;exitDx=0;exitDy=0;entryX=0.794;entryY=-0.011;entryDx=0;entryDy=0;entryPerimeter=0;" parent="1" source="4jSW-Y-S4H_q4Jhx5r0V-10" target="4jSW-Y-S4H_q4Jhx5r0V-8" edge="1">
          <mxGeometry relative="1" as="geometry" />
        </mxCell>
        <mxCell id="4jSW-Y-S4H_q4Jhx5r0V-21" style="edgeStyle=none;rounded=0;orthogonalLoop=1;jettySize=auto;html=1;exitX=0.5;exitY=1;exitDx=0;exitDy=0;entryX=0.294;entryY=-0.011;entryDx=0;entryDy=0;entryPerimeter=0;" parent="1" source="4jSW-Y-S4H_q4Jhx5r0V-10" target="4jSW-Y-S4H_q4Jhx5r0V-4" edge="1">
          <mxGeometry relative="1" as="geometry" />
        </mxCell>
      </root>
    </mxGraphModel>
  </diagram>
</mxfile>
